<?xml version="1.0" standalone="no"?>
<!DOCTYPE svg PUBLIC "-//W3C//DTD SVG 20010904//EN"
 "http://www.w3.org/TR/2001/REC-SVG-20010904/DTD/svg10.dtd">
<svg version="1.0" xmlns="http://www.w3.org/2000/svg"
 width="1024.000000pt" height="1024.000000pt" viewBox="0 0 1024.000000 1024.000000"
 preserveAspectRatio="xMidYMid meet">
<metadata>
Created by potrace 1.11, written by Peter Selinger 2001-2013
</metadata>
<g transform="translate(0.000000,1024.000000) scale(0.100000,-0.100000)"
fill="#000000" stroke="none">
<path d="M4978 10155 c-2 -1 -70 -5 -153 -9 -82 -4 -166 -9 -185 -11 -19 -2
-64 -6 -100 -9 -194 -15 -553 -82 -790 -147 -148 -41 -421 -129 -475 -154 -16
-7 -70 -30 -120 -50 -226 -92 -736 -368 -753 -407 -2 -5 -8 -8 -13 -8 -25 0
-381 -266 -534 -399 -226 -196 -438 -410 -611 -617 -23 -27 -63 -73 -88 -103
-25 -30 -58 -73 -73 -95 -15 -23 -30 -43 -33 -46 -37 -33 -227 -317 -318 -475
-76 -132 -210 -398 -247 -491 -15 -37 -31 -75 -35 -83 -8 -17 -16 -35 -48
-116 -101 -255 -224 -729 -256 -990 -2 -16 -7 -46 -10 -65 -8 -42 -14 -94 -22
-180 -3 -36 -8 -78 -9 -95 -24 -207 -24 -798 -1 -970 3 -16 7 -61 10 -100 3
-38 8 -81 10 -95 3 -14 10 -63 16 -110 7 -47 13 -94 15 -105 11 -77 71 -352
96 -440 11 -38 22 -81 25 -95 8 -41 130 -401 152 -450 11 -25 33 -74 47 -110
30 -72 169 -358 212 -435 76 -136 105 -182 204 -330 59 -88 115 -170 126 -182
10 -11 36 -47 58 -78 22 -31 49 -67 60 -79 11 -13 36 -42 55 -66 129 -160 326
-371 492 -525 105 -98 145 -133 208 -185 30 -25 60 -49 66 -55 30 -27 109 -91
123 -100 31 -19 176 -130 179 -137 2 -5 9 -8 16 -8 7 0 21 -9 31 -20 10 -11
21 -20 25 -20 4 0 36 -19 70 -42 87 -60 113 -77 130 -85 8 -3 26 -14 40 -23
93 -64 432 -232 640 -318 123 -51 429 -157 481 -167 8 -2 60 -15 115 -29 54
-15 108 -28 119 -31 11 -2 64 -13 119 -24 149 -32 148 -32 186 -36 19 -3 49
-7 65 -10 17 -2 53 -7 80 -11 28 -3 58 -8 68 -10 20 -3 97 -11 187 -19 30 -3
89 -8 130 -12 159 -14 679 -7 840 12 19 2 69 6 110 10 41 3 116 12 165 20 50
7 110 16 135 19 75 10 367 74 501 111 271 75 613 204 797 302 35 18 70 33 77
33 7 0 15 3 17 8 2 4 26 18 53 32 65 32 269 149 320 183 22 15 48 33 59 40 10
6 29 20 41 30 13 9 26 17 29 17 4 0 12 4 19 10 7 5 66 49 132 97 66 48 125 92
132 98 7 5 18 15 25 20 146 113 371 318 538 490 128 132 151 157 191 206 20
24 46 54 57 67 11 13 35 41 54 64 18 23 38 46 43 52 14 16 66 85 94 126 13 19
26 37 30 40 9 7 87 113 92 125 2 6 43 69 92 142 48 72 87 134 87 136 0 3 25
48 55 101 30 52 55 100 55 105 0 6 5 11 10 11 6 0 10 5 10 11 0 5 27 65 59
132 118 244 266 639 297 793 1 6 9 36 17 65 15 50 49 199 60 259 3 14 8 36 11
50 12 52 19 93 36 223 6 45 13 93 15 107 7 37 14 109 32 330 14 173 6 703 -12
833 -2 18 -7 61 -9 97 -5 55 -23 199 -41 315 -2 17 -11 62 -19 100 -8 39 -17
82 -20 95 -50 256 -153 594 -254 835 -51 123 -193 421 -226 475 -8 14 -37 63
-63 110 -42 75 -160 260 -210 330 -142 197 -315 412 -432 539 -134 145 -326
333 -441 431 -35 30 -71 62 -80 70 -29 27 -154 126 -255 202 -164 122 -356
247 -540 351 -84 47 -367 184 -461 223 -49 20 -107 44 -129 54 -40 18 -305
109 -336 115 -10 2 -66 17 -127 34 -185 51 -407 98 -582 121 -47 7 -96 14
-110 16 -14 2 -56 6 -95 9 -38 3 -83 7 -100 10 -96 13 -616 29 -627 20z m302
-1296 c353 -354 372 -378 373 -488 2 -100 -26 -142 -234 -352 -186 -189 -228
-235 -230 -254 0 -5 -2 -21 -5 -34 -8 -43 14 -84 87 -161 39 -41 80 -88 90
-105 22 -35 24 -83 6 -128 -20 -46 -215 -241 -256 -255 -19 -7 -86 -12 -150
-12 -64 0 -132 -4 -151 -10 -23 -7 -69 -44 -143 -117 -134 -134 -147 -152
-154 -211 -4 -44 2 -61 113 -287 65 -132 118 -242 119 -245 1 -3 22 -49 48
-103 26 -54 51 -114 55 -135 16 -69 -23 -153 -82 -177 -35 -14 -196 -19 -238
-8 -23 7 -84 56 -237 191 -75 66 -202 99 -291 75 -30 -8 -59 -16 -65 -17 -5
-1 -150 -48 -321 -104 -345 -114 -382 -132 -416 -210 -30 -66 -32 -165 -6
-220 25 -52 52 -73 183 -143 305 -163 442 -207 686 -224 47 -3 96 -7 108 -10
45 -8 129 -71 191 -142 36 -41 70 -80 75 -86 6 -7 51 -66 100 -132 50 -66 126
-157 170 -202 l80 -83 705 -1 c735 0 750 -1 841 -24 129 -34 190 -78 415 -303
182 -181 235 -247 274 -337 72 -168 59 -430 -31 -625 -67 -145 -107 -196 -343
-434 -151 -153 -187 -203 -201 -285 -3 -19 -8 -37 -10 -41 -2 -3 -6 -17 -9
-31 -12 -57 -78 -257 -140 -424 -37 -99 -69 -184 -70 -190 -2 -5 -6 -17 -9
-25 -14 -35 -195 -537 -201 -558 -4 -12 -15 -26 -24 -31 -17 -9 -197 -45 -282
-56 -25 -3 -52 -8 -60 -10 -8 -3 -44 -7 -80 -10 -36 -4 -83 -8 -105 -11 -22
-2 -106 -7 -188 -10 l-147 -6 -1 338 c0 187 -1 351 -3 365 -16 115 -75 296
-140 431 -20 41 -36 80 -36 86 0 6 -4 12 -8 14 -4 2 -26 32 -47 68 -41 70
-128 189 -166 230 -147 157 -195 233 -229 363 -16 63 -18 120 -19 452 -2 431
-2 429 -26 545 0 3 -7 23 -14 45 -51 151 -154 262 -333 358 -60 33 -167 91
-278 152 -122 67 -246 132 -500 263 -113 58 -212 111 -221 118 -8 8 -21 14
-28 14 -6 0 -17 5 -24 10 -7 6 -64 43 -128 84 -292 184 -491 356 -682 591 -46
56 -147 197 -147 205 0 5 -6 13 -14 17 -7 4 -15 13 -17 18 -2 6 -95 146 -207
313 -111 166 -202 307 -202 311 0 5 -3 11 -7 13 -11 5 -216 311 -216 323 0 11
148 311 162 329 5 6 23 38 41 71 40 74 132 219 143 223 4 2 7 9 7 15 0 7 11
25 25 41 14 16 25 33 25 37 0 4 6 14 13 21 7 7 46 58 87 113 41 55 77 102 80
105 3 3 34 39 70 80 84 98 255 269 350 350 41 36 83 73 95 84 41 38 369 276
380 276 2 0 30 17 62 38 110 73 306 178 493 264 l55 25 140 -69 c77 -38 150
-76 162 -84 12 -8 29 -14 37 -14 8 0 17 -4 20 -8 5 -8 81 -46 161 -82 147 -65
348 21 409 174 21 51 24 77 25 199 1 78 4 143 6 145 8 8 209 38 325 48 36 3
66 7 68 8 1 2 22 4 47 4 l45 2 320 -321z m3551 -2094 c28 -60 60 -132 70 -160
9 -27 29 -80 42 -117 34 -88 104 -321 122 -400 8 -35 22 -94 30 -133 9 -38 18
-81 20 -95 2 -14 6 -38 9 -55 3 -16 8 -50 11 -75 3 -25 8 -52 10 -60 2 -8 7
-46 10 -85 4 -38 9 -90 11 -115 14 -143 19 -450 9 -550 -2 -25 -6 -76 -9 -115
-7 -96 -17 -177 -25 -196 -5 -14 -17 -13 -106 13 -55 16 -109 30 -120 33 -11
2 -60 16 -110 30 -49 14 -101 28 -114 31 -14 3 -28 7 -33 10 -5 3 -21 8 -36
10 -96 18 -221 75 -274 126 -26 25 -87 102 -103 129 -5 10 -68 105 -140 211
-71 106 -132 197 -134 203 -2 5 -7 12 -10 15 -8 7 -53 77 -78 121 -65 114 -76
264 -29 392 15 42 34 81 42 88 8 6 14 15 14 20 0 4 13 27 28 51 45 68 216 335
227 355 22 38 145 219 162 238 52 58 145 112 373 217 l55 26 12 -27 c7 -14 36
-75 64 -136z"/>
</g>
</svg>
